Fly_normalized_Motion_pl06
version=1
nRows=12
nColumns=43
inDegrees=yes
endheader
time		pelvis_tilt		pelvis_list		pelvis_rotation		pelvis_tx		pelvis_ty		pelvis_tz		hip_flexion_r		hip_adduction_r		hip_rotation_r		knee_angle_r		ankle_angle_r		subtalar_angle_r		mtp_angle_r		hip_flexion_l		hip_adduction_l		hip_rotation_l		knee_angle_l		ankle_angle_l		subtalar_angle_l		mtp_angle_l		lumbar_extension		lumbar_bending		lumbar_rotation		neck_flexion		neck_lateral_bending		neck_rotation		arm_flex_r		arm_add_r		arm_rot_r		elbow_flex_r		pro_sup_r		wrist_flex_r		wrist_dev_r		hand_finger_flex_r		arm_flex_l		arm_add_l		arm_rot_l		elbow_flex_l		pro_sup_l		wrist_flex_l		wrist_dev_l		hand_finger_flex_l		
0.640833		1.845137		1.200652		82.481010		0.034214		1.496184		0.961210		37.728804		1.225987		-4.896828		-49.826484		-19.061195		-1.889610		-0.636225		42.647393		-8.712268		-0.938652		-39.916141		-29.538370		3.360487		17.009373		-45.358431		-1.793696		9.126845		10.975911		3.310362		-4.317638		3.555173		-42.138506		-11.920290		71.843060		111.204317		2.618730		-13.272231		1.831202		-7.118070		-32.512269		-1.912280		61.714196		123.821116		-25.230596		-7.747324		-0.072795		
0.645051		1.906379		1.382417		82.354700		0.033756		1.484520		0.950573		37.125353		1.206550		-5.159390		-48.302533		-18.935107		-1.325684		-1.173851		41.980897		-8.890134		-1.326604		-39.288301		-30.168666		3.504129		16.798663		-44.952888		-1.725471		9.384974		9.943161		3.310762		-4.571634		0.018721		-42.084429		-13.183562		72.528310		110.539179		2.745556		-13.263770		0.898443		-9.852834		-32.181738		-2.493772		61.495796		123.611202		-25.127029		-7.835329		-1.178546		
0.649268		1.959413		1.467700		82.273375		0.033291		1.472437		0.939898		36.618998		1.206495		-5.366659		-46.799866		-18.854373		-0.669719		-1.413943		41.405361		-9.063045		-1.779268		-38.624600		-30.774083		3.628041		16.609275		-44.417620		-1.627170		9.471776		8.879010		3.369865		-4.567466		-3.220613		-41.968132		-14.069148		72.989264		110.179721		2.645799		-13.505446		0.384154		-12.813623		-31.801978		-3.280605		61.406154		123.290167		-25.329695		-7.923874		-1.598752		
0.653485		2.015931		1.566914		82.233073		0.032645		1.460185		0.929084		36.061623		1.167739		-5.572515		-45.296864		-18.773980		0.053845		-1.577960		40.805535		-9.229379		-2.264753		-37.938588		-31.329426		3.755323		16.433557		-43.864304		-1.476246		9.565662		7.716783		3.364483		-4.608579		-6.494555		-41.829846		-14.942940		73.429427		109.762616		2.527891		-13.719201		-0.059829		-15.694530		-31.383676		-3.954487		61.284778		123.007132		-25.499182		-8.029124		-1.841269		
0.657702		2.066965		1.685623		82.212680		0.031947		1.447767		0.918134		35.447332		1.115293		-5.798830		-43.785080		-18.683104		0.851896		-1.759779		40.175295		-9.367626		-2.755082		-37.252040		-31.833884		3.878839		16.247659		-43.313331		-1.301141		9.665870		6.532545		3.303724		-4.718122		-9.836012		-41.630993		-15.881507		73.942246		109.281653		2.454219		-13.919746		-0.600209		-18.506967		-30.948670		-4.547906		61.123928		122.745367		-25.621124		-8.143523		-2.103353		
0.661919		2.159500		1.826243		82.232728		0.031228		1.435215		0.907043		34.742233		1.083905		-6.048188		-42.225352		-18.542896		1.831777		-1.936533		39.505692		-9.524634		-3.250424		-36.535786		-32.326184		3.979748		16.043848		-42.782335		-1.062406		9.798370		5.375772		3.218220		-4.873318		-13.244940		-41.290836		-16.951846		74.506211		108.710328		2.420866		-14.102290		-1.307054		-21.236923		-30.462363		-5.106160		60.941406		122.510237		-25.810836		-8.219970		-2.473821		
0.666136		2.266097		1.991253		82.268354		0.030521		1.422538		0.895859		33.970946		1.056918		-6.307516		-40.637835		-18.420250		2.922502		-2.069500		38.776378		-9.687888		-3.795343		-35.756482		-32.780230		4.008511		15.859135		-42.269508		-0.800050		9.924140		4.211037		3.129168		-5.034106		-16.617996		-40.846055		-18.031000		75.091529		108.140738		2.424118		-14.271779		-2.110915		-23.928992		-29.965514		-5.606132		60.755713		122.363952		-26.086973		-8.251422		-2.972826		
0.670354		2.323259		2.142871		82.311252		0.029949		1.409540		0.884644		33.274790		1.012856		-6.540014		-39.145500		-18.554418		3.606818		-2.166590		38.044417		-9.818018		-4.426356		-34.937672		-33.194518		3.987959		15.745323		-41.681349		-0.582767		9.902972		2.780839		3.053317		-5.077012		-19.748507		-40.364808		-18.873070		75.616226		107.818986		2.602167		-14.432619		-2.903979		-26.772453		-29.495580		-6.148263		60.683024		122.252866		-26.485228		-8.212824		-3.616217		
0.674571		2.433659		2.467013		82.329148		0.029305		1.396870		0.873265		32.293487		0.980779		-6.832596		-37.518838		-18.641365		4.534950		-2.346413		37.018242		-9.986007		-5.176293		-33.961109		-33.516432		3.907662		15.670581		-41.326164		-0.329877		10.119724		1.599429		2.883578		-5.376477		-23.207946		-39.696221		-20.275390		76.388358		107.513342		3.775635		-14.397754		-5.662422		-29.303589		-29.110212		-6.345972		60.589278		122.303766		-26.312435		-8.078564		-5.519242		
0.678788		2.463365		2.510693		82.268850		0.028831		1.383385		0.861941		31.699596		0.942954		-7.065003		-36.008605		-18.839537		5.491185		-2.350883		36.278915		-10.162218		-6.076213		-32.950572		-33.755636		3.789864		15.643115		-40.601316		-0.191721		10.162280		0.214599		2.870739		-5.309811		-26.200383		-39.049724		-20.991174		76.823598		107.376858		3.560229		-14.703502		-6.134441		-32.067487		-28.479750		-6.988105		60.526782		122.280441		-26.686174		-8.193316		-5.813221		
0.683005		2.461967		2.636954		82.218739		0.028361		1.369867		0.850522		31.014942		0.857611		-7.319062		-34.504246		-19.144445		6.183546		-2.350691		35.407273		-10.298497		-7.042014		-31.857540		-33.903295		3.707219		15.657629		-39.947415		-0.078972		10.196272		-1.182064		2.789477		-5.343583		-29.206547		-38.347053		-21.736791		77.334352		107.253051		3.443990		-14.962046		-6.677315		-34.776036		-27.884993		-7.537275		60.514750		122.296449		-27.041007		-8.287928		-6.165013		
0.687222		2.463962		2.825660		82.161674		0.027927		1.356358		0.838986		30.220473		0.785581		-7.569917		-32.950653		-19.530814		6.710992		-2.333763		34.401797		-10.432099		-8.111075		-30.658433		-33.916221		3.681836		15.720003		-39.351447		0.027687		10.262104		-2.561669		2.673568		-5.426799		-32.162476		-37.542653		-22.521204		77.843652		107.164069		3.399810		-15.179841		-7.315623		-37.393365		-27.264666		-8.058742		60.520771		122.295528		-27.378602		-8.363677		-6.558608		
